# xmcd
#
# Track frame offsets: 
#        150
#        15857
#        41664
#        58476
#        71790
#        86292
#        104632
#        116283
#        134472
#        147165
#        161057
#        190427
#
# Disc length: 2704 seconds
#
# Revision: 0
# Processed by: cddbd v1.5.2PL0 Copyright (c) Steve Scherf et al.
# Submitted via: ExactAudioCopy v1.0b2
#
DISCID=ab0a8e0c
DTITLE=Various Artist - Фанк! Самая Откровенная Музыка в ССС
DYEAR=2005
DGENRE=Funk
TTITLE0="Stephen Stills, О.Горбатюк, Оркестр и вокальная группа "Диско
TTITLE0=" - Мгновенье, стой!
TTITLE1="И. Петренко, Оркестр и вокальная группа "Диско" - Приглашение
TTITLE2="P. Simon, Е. Дриацкая, В. Артюх" -  El condor pasa
TTITLE3="А. Ильин, Ансамбль п/у А. Тартаковского" - Путешественник
TTITLE4="А. Кальварский, Ю. Погорельский, Н. Бродская" - Зелье приворо
TTITLE4=тное
TTITLE5="А. Кальварский, Оркестр Ленинградского радио" - Час пик
TTITLE6="А. Кальварский, Л. Шишко, А. Иванова" - Хороша была любовь
TTITLE7="Christine Authors, Terry Britten, ВИА "Здравствуй, песня" - D
TTITLE7=evil woman
TTITLE8="В. Кузьмин, Ансамбль п/у А. Тартаковского" - Маугли
TTITLE9="М. Новикас, А. Саульинас, Ю. Корбина, ВИА "Оризонт" - Калина
TTITLE10="Д. Атовмян, ВИА "Эстрадные мелодии" - Скорый поезд №5
TTITLE11="В. Бортко, Т. Калинина, Е. Дриацкая, В. Артюх" - Тогда летим
EXTD=
EXTT0=
EXTT1=
EXTT2=
EXTT3=
EXTT4=
EXTT5=
EXTT6=
EXTT7=
EXTT8=
EXTT9=
EXTT10=
EXTT11=
PLAYORDER=
